<svg width="27" height="24" viewBox="0 0 27 24" fill="none" xmlns="http://www.w3.org/2000/svg">
<path id="Vector" fill-rule="evenodd" clip-rule="evenodd" d="M11.3824 1.87649V7.96172C11.3822 8.92613 10.987 9.85096 10.2837 10.5328L7.31242 13.4142C9.50875 13.2641 11.7064 13.6881 13.6762 14.6421C15.8864 15.7143 18.4182 15.9876 20.8174 15.4131L21.1737 15.327L16.2312 10.5328C15.5279 9.85096 15.1326 8.92613 15.1324 7.96172V1.87649C13.8837 1.79941 12.6312 1.79941 11.3824 1.87649ZM17.0074 2.04377C17.2474 2.04589 17.4792 1.95864 17.6548 1.8C17.8305 1.64137 17.9367 1.42344 17.9516 1.19111C17.9665 0.958783 17.889 0.729763 17.7349 0.551239C17.5809 0.372715 17.3621 0.258289 17.1237 0.231538C15.8411 0.0763941 14.5499 -0.000932906 13.2574 8.49233e-06C11.965 -0.000272956 10.6738 0.0770516 9.39117 0.231538C9.15272 0.258289 8.93394 0.372715 8.77991 0.551239C8.62587 0.729763 8.54831 0.958783 8.56322 1.19111C8.57812 1.42344 8.68435 1.64137 8.86001 1.8C9.03568 1.95864 9.26739 2.04589 9.50742 2.04377V7.96172C9.50698 8.4438 9.30915 8.90598 8.95742 9.24665L1.09117 16.8762C-0.933833 18.8412 -0.0375831 22.3008 2.92992 22.7917C6.28742 23.3494 9.73867 23.6379 13.2574 23.6379C16.7774 23.6379 20.2274 23.3481 23.5849 22.793C26.5512 22.3008 27.4499 18.8412 25.4224 16.8762L17.5574 9.24786C17.3831 9.07904 17.2448 8.87855 17.1504 8.65787C17.0561 8.43719 17.0075 8.20063 17.0074 7.96172V2.04377Z" fill="#FFCB00"/>
</svg>
