<svg width="30" height="30" viewBox="0 0 30 30" fill="none" xmlns="http://www.w3.org/2000/svg">
<g id="Frame">
<path id="Vector" d="M6.14125 3.3225C8.735 2.985 11.3787 2.8125 14.0625 2.8125C16.7463 2.8125 19.39 2.98625 21.9837 3.3225C24.3862 3.635 26.0975 5.64875 26.24 7.98125C25.8221 7.84203 25.389 7.75348 24.95 7.7175C21.4477 7.42677 17.9273 7.42677 14.425 7.7175C11.4775 7.9625 9.375 10.455 9.375 13.26V18.6175C9.37382 19.6472 9.65722 20.6572 10.1939 21.536C10.7306 22.4148 11.4997 23.1283 12.4162 23.5975L9.1 26.9125C8.96889 27.0434 8.80192 27.1326 8.62017 27.1687C8.43842 27.2048 8.25005 27.1862 8.07885 27.1154C7.90764 27.0445 7.76128 26.9244 7.65826 26.7704C7.55523 26.6164 7.50016 26.4353 7.5 26.25V21.2125C7.0465 21.1643 6.59355 21.1109 6.14125 21.0525C3.63125 20.725 1.875 18.5413 1.875 16.0775V8.2975C1.875 5.835 3.63125 3.64875 6.14125 3.3225Z" fill="#FFCB00"/>
<path id="Vector_2" d="M19.6875 9.375C17.9675 9.375 16.2637 9.44625 14.58 9.58625C12.655 9.74625 11.25 11.3788 11.25 13.2613V18.6175C11.25 20.5013 12.66 22.135 14.5875 22.2925C16.1413 22.42 17.7125 22.4888 19.2975 22.4988L22.775 25.975C22.9061 26.1059 23.0731 26.1951 23.2548 26.2312C23.4366 26.2673 23.625 26.2488 23.7962 26.1779C23.9674 26.107 24.1137 25.9869 24.2167 25.8329C24.3198 25.6789 24.3748 25.4978 24.375 25.3125V22.325L24.7875 22.2925C26.715 22.1363 28.125 20.5013 28.125 18.6175V13.26C28.125 11.3788 26.7188 9.74625 24.795 9.585C23.0961 9.44452 21.3922 9.37446 19.6875 9.375Z" fill="#FFCB00"/>
</g>
</svg>
