<svg width="30" height="30" viewBox="0 0 30 30" fill="none" xmlns="http://www.w3.org/2000/svg">
<g id="Frame">
<path id="Vector" fill-rule="evenodd" clip-rule="evenodd" d="M15 1.875C13.2595 1.875 11.5903 2.5664 10.3596 3.79711C9.1289 5.02782 8.4375 6.69702 8.4375 8.4375V12.1875C7.44294 12.1875 6.48911 12.5826 5.78585 13.2858C5.08259 13.9891 4.6875 14.9429 4.6875 15.9375V24.375C4.6875 25.3696 5.08259 26.3234 5.78585 27.0267C6.48911 27.7299 7.44294 28.125 8.4375 28.125H21.5625C22.5571 28.125 23.5109 27.7299 24.2142 27.0267C24.9174 26.3234 25.3125 25.3696 25.3125 24.375V15.9375C25.3125 14.9429 24.9174 13.9891 24.2142 13.2858C23.5109 12.5826 22.5571 12.1875 21.5625 12.1875V8.4375C21.5625 4.8125 18.625 1.875 15 1.875ZM19.6875 12.1875V8.4375C19.6875 7.1943 19.1936 6.00201 18.3146 5.12294C17.4355 4.24386 16.2432 3.75 15 3.75C13.7568 3.75 12.5645 4.24386 11.6854 5.12294C10.8064 6.00201 10.3125 7.1943 10.3125 8.4375V12.1875H19.6875Z" fill="#FFCB00"/>
</g>
</svg>
