<svg width="30" height="30" viewBox="0 0 30 30" fill="none" xmlns="http://www.w3.org/2000/svg">
<g id="Frame">
<path id="Vector" d="M15 0.9375C12.7307 0.93699 10.5245 1.68504 8.72354 3.0657C6.92254 4.44636 5.62724 6.38253 5.0384 8.57413C4.44956 10.7657 4.60006 13.0904 5.46658 15.1877C6.3331 17.2851 7.86725 19.0381 9.83125 20.175C10.6888 20.6725 11.225 21.435 11.2488 22.2038C11.2553 22.4097 11.3295 22.6077 11.4599 22.7672C11.5902 22.9267 11.7695 23.0388 11.97 23.0863C12.41 23.19 12.8575 23.2712 13.3125 23.33C13.7163 23.3813 14.0625 23.0575 14.0625 22.65V16.8237C13.6675 16.7803 13.2761 16.7089 12.8913 16.61C12.772 16.5793 12.66 16.5254 12.5615 16.4514C12.4631 16.3774 12.3802 16.2848 12.3176 16.1787C12.255 16.0727 12.2138 15.9554 12.1966 15.8334C12.1793 15.7115 12.1862 15.5874 12.2169 15.4681C12.2476 15.3489 12.3015 15.2368 12.3755 15.1384C12.4495 15.04 12.5421 14.9571 12.6481 14.8944C12.7542 14.8318 12.8715 14.7907 12.9934 14.7734C13.1154 14.7561 13.2395 14.7631 13.3588 14.7937C14.4353 15.0712 15.5647 15.0712 16.6413 14.7937C16.7617 14.759 16.8879 14.7488 17.0124 14.7638C17.1368 14.7787 17.2571 14.8184 17.3659 14.8806C17.4747 14.9428 17.57 15.0262 17.6461 15.1258C17.7221 15.2255 17.7774 15.3394 17.8087 15.4608C17.84 15.5822 17.8466 15.7086 17.8281 15.8326C17.8097 15.9566 17.7665 16.0756 17.7013 16.1826C17.636 16.2897 17.55 16.3825 17.4482 16.4557C17.3464 16.5289 17.231 16.5809 17.1088 16.6087C16.7239 16.7081 16.3325 16.7799 15.9375 16.8237V22.6488C15.9375 23.0575 16.2838 23.3813 16.6875 23.33C17.1425 23.2712 17.59 23.19 18.03 23.0863C18.2305 23.0388 18.4098 22.9267 18.5401 22.7672C18.6705 22.6077 18.7447 22.4097 18.7513 22.2038C18.7763 21.435 19.3113 20.6725 20.1688 20.175C22.1327 19.0381 23.6669 17.2851 24.5334 15.1877C25.3999 13.0904 25.5504 10.7657 24.9616 8.57413C24.3728 6.38253 23.0775 4.44636 21.2765 3.0657C19.4755 1.68504 17.2693 0.93699 15 0.9375Z" fill="#FFCB00"/>
<path id="Vector_2" fill-rule="evenodd" clip-rule="evenodd" d="M11.2663 24.875C11.2892 24.754 11.3358 24.6387 11.4033 24.5357C11.4709 24.4327 11.558 24.344 11.6598 24.2747C11.7616 24.2054 11.8761 24.1569 11.9966 24.1318C12.1172 24.1068 12.2416 24.1057 12.3625 24.1287C14.1053 24.4594 15.8948 24.4594 17.6375 24.1287C17.76 24.1018 17.8866 24.0997 18.0099 24.1225C18.1332 24.1454 18.2507 24.1927 18.3553 24.2617C18.46 24.3308 18.5497 24.4201 18.6193 24.5245C18.6888 24.6288 18.7367 24.7461 18.7601 24.8692C18.7835 24.9924 18.782 25.1191 18.7556 25.2416C18.7292 25.3642 18.6785 25.4803 18.6065 25.5829C18.5344 25.6855 18.4425 25.7727 18.3362 25.8392C18.2299 25.9056 18.1113 25.9501 17.9875 25.97C16.0135 26.3446 13.9866 26.3446 12.0125 25.97C11.7684 25.9236 11.5527 25.7822 11.4128 25.5769C11.2729 25.3716 11.2202 25.1191 11.2663 24.875ZM12.1925 27.93C12.2053 27.8075 12.2421 27.6888 12.3008 27.5805C12.3595 27.4723 12.4389 27.3767 12.5346 27.2991C12.6302 27.2216 12.7402 27.1637 12.8583 27.1286C12.9763 27.0936 13.1001 27.0822 13.2225 27.095C14.4043 27.2185 15.5958 27.2185 16.7775 27.095C17.0249 27.0691 17.2723 27.1426 17.4655 27.2992C17.6586 27.4558 17.7817 27.6827 17.8075 27.93C17.8334 28.1773 17.76 28.4248 17.6034 28.6179C17.4468 28.8111 17.2199 28.9341 16.9725 28.96C15.6611 29.0973 14.339 29.0973 13.0275 28.96C12.9051 28.9472 12.7863 28.9104 12.6781 28.8517C12.5699 28.793 12.4742 28.7136 12.3967 28.6179C12.3192 28.5223 12.2612 28.4123 12.2262 28.2943C12.1912 28.1762 12.1797 28.0524 12.1925 27.93Z" fill="#FFCB00"/>
</g>
</svg>
