<svg width="30" height="30" viewBox="0 0 30 30" fill="none" xmlns="http://www.w3.org/2000/svg">
<g id="Frame">
<path id="Vector" fill-rule="evenodd" clip-rule="evenodd" d="M11.6437 9.48C15.2437 4.85375 20.8687 1.875 27.1875 1.875C27.4361 1.875 27.6746 1.97377 27.8504 2.14959C28.0262 2.3254 28.125 2.56386 28.125 2.8125C28.125 9.1325 25.1462 14.7562 20.52 18.3575C20.7124 19.5628 20.641 20.7955 20.3107 21.9705C19.9805 23.1456 19.3992 24.2349 18.6071 25.1635C17.8149 26.0921 16.8307 26.8378 15.7224 27.349C14.6141 27.8603 13.4081 28.1251 12.1875 28.125C11.9389 28.125 11.7004 28.0262 11.5246 27.8504C11.3488 27.6746 11.25 27.4361 11.25 27.1875V22.0238C10.0349 21.0642 8.93657 19.9655 7.9775 18.75H2.8125C2.56386 18.75 2.3254 18.6512 2.14959 18.4754C1.97377 18.2996 1.875 18.0611 1.875 17.8125C1.8749 16.5918 2.13967 15.3856 2.65103 14.2772C3.16239 13.1688 3.90817 12.1846 4.83689 11.3924C5.76561 10.6002 6.85516 10.019 8.03034 9.68882C9.20553 9.35865 10.4384 9.2874 11.6437 9.48ZM18.75 8.4375C18.0041 8.4375 17.2887 8.73382 16.7613 9.26126C16.2338 9.78871 15.9375 10.5041 15.9375 11.25C15.9375 11.9959 16.2338 12.7113 16.7613 13.2387C17.2887 13.7662 18.0041 14.0625 18.75 14.0625C19.4959 14.0625 20.2113 13.7662 20.7387 13.2387C21.2662 12.7113 21.5625 11.9959 21.5625 11.25C21.5625 10.5041 21.2662 9.78871 20.7387 9.26126C20.2113 8.73382 19.4959 8.4375 18.75 8.4375Z" fill="#FFCB00"/>
<path id="Vector_2" d="M6.57498 21.5525C6.67372 21.4789 6.75699 21.3865 6.82004 21.2807C6.88309 21.1749 6.92468 21.0577 6.94244 20.9358C6.9602 20.814 6.95378 20.6898 6.92354 20.5704C6.89331 20.451 6.83986 20.3387 6.76623 20.24C6.69261 20.1412 6.60026 20.058 6.49446 19.9949C6.38866 19.9319 6.27147 19.8903 6.14959 19.8725C6.02772 19.8548 5.90354 19.8612 5.78414 19.8914C5.66474 19.9217 5.55247 19.9751 5.45373 20.0487C4.49485 20.762 3.74925 21.7239 3.29759 22.8304C2.84593 23.9368 2.70541 25.1457 2.89123 26.3262C2.92145 26.5229 3.01344 26.7048 3.15388 26.8457C3.29433 26.9866 3.47595 27.0791 3.67248 27.11C4.85315 27.2957 6.06211 27.155 7.16857 26.7031C8.27503 26.2512 9.23686 25.5053 9.94999 24.5462C10.026 24.4478 10.0816 24.3351 10.1137 24.215C10.1457 24.0948 10.1535 23.9694 10.1366 23.8462C10.1197 23.7229 10.0785 23.6043 10.0153 23.4971C9.95207 23.39 9.86818 23.2965 9.76849 23.2221C9.6688 23.1477 9.5553 23.0939 9.43461 23.0638C9.31392 23.0337 9.18844 23.028 9.06549 23.0468C8.94255 23.0657 8.82458 23.1089 8.71848 23.1738C8.61238 23.2387 8.52026 23.3241 8.44748 23.425C8.01157 24.0112 7.44445 24.4873 6.79154 24.8151C6.13863 25.1428 5.41805 25.3132 4.68748 25.3125C4.68748 23.775 5.42748 22.4087 6.57498 21.5525Z" fill="#FFCB00"/>
</g>
</svg>
