<?xml version="1.0" encoding="UTF-8"?>
<svg id="Capa_1" data-name="Capa 1" xmlns="http://www.w3.org/2000/svg" viewBox="0 0 1219 186">
  <defs>
    <style>
      .cls-1 {
        fill: #f2f2f2;
        stroke-width: 0px;
      }
    </style>
  </defs>
  <path class="cls-1" d="M34.49,122.44c1.26,1.04,2.87,2.43,4.83,4.17,1.96,1.74,4.2,3.46,6.72,5.17,3.78,2.52,7.51,4.48,11.22,5.89,3.7,1.41,7.59,2.11,11.66,2.11,3.78,0,6.94-.42,9.5-1.28,2.55-.85,4.57-1.98,6.05-3.38,1.48-1.41,2.54-3.03,3.17-4.88.63-1.85.94-3.81.94-5.88,0-2.29-.87-4.35-2.61-6.16-1.74-1.81-3.87-3.42-6.39-4.83-2.52-1.41-5.15-2.61-7.89-3.61-2.74-1-5.11-1.83-7.11-2.5-8.89-3.11-16.66-6.45-23.32-10.04s-12.22-7.58-16.66-11.99c-4.44-4.4-7.77-9.25-10-14.54s-3.33-11.19-3.33-17.7c0-6.88,1.39-13.13,4.17-18.75,2.78-5.62,6.74-10.43,11.88-14.43,5.15-3.99,11.35-7.08,18.6-9.27,7.26-2.18,15.36-3.27,24.32-3.27,6.74,0,13.2.76,19.38,2.28,6.18,1.52,12.27,3.94,18.27,7.28,2.52,1.48,4.9,3.02,7.16,4.61,2.26,1.59,4.24,3.13,5.94,4.61,1.7,1.48,3.05,2.89,4.05,4.22,1,1.33,1.5,2.48,1.5,3.44s-.24,1.85-.72,2.67c-.48.82-1.2,1.74-2.17,2.78l-16.99,18.1c-1.26,1.26-2.52,1.89-3.78,1.89-1.04,0-1.98-.29-2.83-.89-.85-.59-1.8-1.33-2.83-2.22l-1-.89c-1.48-1.26-3.13-2.55-4.94-3.89-1.82-1.33-3.76-2.54-5.83-3.61-2.07-1.07-4.26-1.96-6.55-2.67-2.3-.7-4.63-1.06-7-1.06s-4.74.2-6.89.61c-2.15.41-4.04,1.06-5.67,1.94-1.63.89-2.93,2.05-3.89,3.5-.96,1.44-1.44,3.2-1.44,5.28s.52,3.87,1.55,5.39c1.04,1.52,2.59,2.93,4.67,4.22,2.07,1.3,4.65,2.52,7.72,3.67,3.07,1.15,6.64,2.39,10.72,3.72,7.85,2.59,15.09,5.31,21.71,8.16,6.62,2.85,12.35,6.22,17.16,10.11,4.81,3.89,8.57,8.54,11.27,13.94,2.7,5.41,4.05,11.96,4.05,19.66,0,8.15-1.67,15.53-5,22.16-3.33,6.63-7.91,12.27-13.72,16.94-5.81,4.67-12.64,8.27-20.49,10.83-7.85,2.55-16.29,3.83-25.32,3.83-8.52,0-16.88-1.52-25.1-4.57-8.22-3.04-15.88-7.13-22.99-12.25-2.96-2.15-5.46-4.27-7.5-6.35-2.04-2.08-3.65-3.75-4.83-5.01l-.33-.33c-.08-.15-.15-.24-.22-.28-.07-.04-.15-.09-.22-.17-.08-.15-.15-.24-.22-.28-.07-.04-.15-.09-.22-.17-1.7-1.86-2.55-3.34-2.55-4.46,0-1.26.85-2.67,2.55-4.23l19.21-18.33c1.55-1.11,2.81-1.67,3.78-1.67.67,0,1.37.22,2.11.67s1.63,1.11,2.67,2Z"/>
  <path class="cls-1" d="M200.2,173.42c-.82-1.33-1.54-2.7-2.17-4.11-.63-1.41-1.24-2.85-1.83-4.33L139.22,15.81c0-.37-.05-.7-.17-1-.11-.29-.17-.59-.17-.89,0-2.07,1.37-3.11,4.11-3.11h35.76c2.81,0,4.74,1.41,5.78,4.22l33.88,101.07c3.04-8.44,5.94-16.86,8.72-25.27,2.78-8.4,5.52-16.83,8.22-25.27,2.7-8.44,5.44-16.86,8.22-25.27,2.78-8.4,5.68-16.83,8.72-25.27,1.04-2.81,3.07-4.22,6.11-4.22h34.99c1.7,0,2.91.32,3.61.94.7.63,1.06,1.46,1.06,2.5,0,.59-.04,1-.11,1.22v.33l-57.31,149.16c-.37,1.04-.82,2.18-1.33,3.44-.52,1.26-1.11,2.43-1.78,3.5-.67,1.07-1.44,1.98-2.33,2.72-.89.74-1.89,1.11-3,1.11h-27.43c-2.3,0-3.81-.78-4.55-2.33Z"/>
  <path class="cls-1" d="M318.04,15.92c0-1.55.42-2.79,1.27-3.72.85-.92,2.05-1.39,3.6-1.39h110.19c1.63,0,2.89.48,3.78,1.44.89.96,1.33,2.25,1.33,3.88v27.46c0,1.26-.44,2.46-1.33,3.6s-2.18,1.72-3.89,1.72h-71.97v27.54h55.53c1.41,0,2.57.33,3.5,1,.92.67,1.39,1.78,1.39,3.33v23.99c0,1.04-.41,2.04-1.22,3-.82.96-2,1.44-3.55,1.44h-55.64v28.43h74.64c3.33,0,5,1.7,5,5.09v27.91c0,.74-.3,1.4-.89,1.99-.3,2.07-1.81,3.1-4.55,3.1h-112.3c-1.48,0-2.66-.39-3.55-1.17-.89-.78-1.33-1.98-1.33-3.61V15.92Z"/>
  <path class="cls-1" d="M515.18,15.15c.07-.44.31-.92.72-1.44.41-.52.91-1,1.5-1.44.59-.44,1.22-.79,1.89-1.06.67-.26,1.29-.39,1.89-.39h28.43c1.26,0,2.33.39,3.22,1.17.89.78,1.55,1.46,2,2.06l2.78,6.33,58.31,150.38c.59,1.48.48,2.68-.33,3.61-.82.93-2.22,1.39-4.22,1.39h-31.88c-1.7,0-3.02-.31-3.94-.94-.93-.63-1.65-1.68-2.17-3.17-1.48-3.78-2.93-7.53-4.33-11.27-1.41-3.74-2.81-7.5-4.22-11.27h-58.98c-1.41,3.78-2.83,7.54-4.28,11.27-1.44,3.74-2.87,7.5-4.28,11.27-.96,2.74-2.85,4.11-5.67,4.11h-32.76c-1.41,0-2.57-.37-3.5-1.11-.93-.74-1.09-1.85-.5-3.33l60.31-156.16ZM535.39,62.68c-1.41,3.78-2.83,7.85-4.28,12.22-1.44,4.37-2.87,8.78-4.28,13.22-1.41,4.44-2.83,8.83-4.28,13.16-1.44,4.33-2.87,8.39-4.28,12.16h34.1l-16.99-50.76Z"/>
  <path class="cls-1" d="M607.25,15.69c0-1.47.5-2.66,1.5-3.54,1-.88,2.24-1.33,3.72-1.33h119.51c1.33,0,2.52.41,3.55,1.22,1.04.81,1.63,2.03,1.78,3.65v27.57c0,1.33-.46,2.6-1.39,3.82-.93,1.22-2.24,1.83-3.94,1.83h-38.32v121.61c0,1.33-.48,2.54-1.44,3.61-.96,1.08-2.22,1.61-3.77,1.61h-32.57c-1.26,0-2.44-.5-3.54-1.5-1.11-1-1.66-2.24-1.66-3.72V48.91h-38.21c-1.48,0-2.72-.48-3.72-1.44-1-.96-1.5-2.36-1.5-4.21V15.69Z"/>
  <path class="cls-1" d="M764.19,15.92c0-1.55.42-2.79,1.27-3.72.85-.92,2.05-1.39,3.6-1.39h110.19c1.63,0,2.89.48,3.78,1.44.89.96,1.33,2.25,1.33,3.88v27.46c0,1.26-.44,2.46-1.33,3.6s-2.18,1.72-3.89,1.72h-71.97v27.54h55.53c1.41,0,2.57.33,3.5,1,.92.67,1.39,1.78,1.39,3.33v23.99c0,1.04-.41,2.04-1.22,3-.82.96-2,1.44-3.55,1.44h-55.64v28.43h74.64c3.33,0,5,1.7,5,5.09v27.91c0,.74-.3,1.4-.89,1.99-.3,2.07-1.81,3.1-4.55,3.1h-112.3c-1.48,0-2.66-.39-3.55-1.17-.89-.78-1.33-1.98-1.33-3.61V15.92Z"/>
  <path class="cls-1" d="M1039.97,22.81c1.26.74,2.18,1.7,2.78,2.89.59,1.19.48,2.59-.33,4.22l-18.77,26.66c-.82,1.26-1.69,1.98-2.61,2.17-.93.19-2.05-.13-3.39-.94-3.63-2.74-7.63-4.85-12-6.33-4.37-1.48-9-2.22-13.88-2.22-6.07,0-11.66,1.15-16.77,3.44-5.11,2.3-9.52,5.44-13.22,9.44-3.7,4-6.59,8.66-8.66,14-2.07,5.33-3.11,11.03-3.11,17.1s1.04,11.76,3.11,17.05c2.07,5.29,4.96,9.92,8.66,13.88,3.7,3.96,8.11,7.09,13.22,9.39,5.11,2.29,10.7,3.44,16.77,3.44,4.89,0,9.55-.76,14-2.28,4.44-1.52,8.48-3.65,12.11-6.39,1.33-.81,2.44-1.15,3.33-1,.89.15,1.78.82,2.67,2l18.99,27.32c.81,1.63.92,3,.33,4.11-.59,1.11-1.52,2.04-2.78,2.78-6.96,4.67-14.46,8.27-22.49,10.83s-16.49,3.83-25.38,3.83c-7.85,0-15.38-1-22.6-3-7.22-2-13.98-4.85-20.27-8.55-6.29-3.7-12.01-8.12-17.16-13.27-5.15-5.15-9.57-10.85-13.27-17.1-3.7-6.26-6.55-13-8.55-20.21-2-7.22-3-14.75-3-22.6s1-15.38,3-22.6,4.85-13.99,8.55-20.33c3.7-6.33,8.12-12.09,13.27-17.27,5.15-5.18,10.87-9.61,17.16-13.27,6.29-3.67,13.05-6.52,20.27-8.55,7.22-2.04,14.75-3.05,22.6-3.05,8.88,0,17.27,1.24,25.16,3.72,7.89,2.48,15.31,6.05,22.27,10.72Z"/>
  <path class="cls-1" d="M1071.06,15.7c.07-1.26.54-2.39,1.39-3.39.85-1,1.98-1.5,3.39-1.5h32.99c1.11,0,2.26.47,3.44,1.39,1.18.93,1.78,2.09,1.78,3.5v52.75h55.2V15.71c0-1.33.46-2.48,1.38-3.45s2.12-1.45,3.6-1.45h32.46c1.48,0,2.77.37,3.88,1.11,1.11.74,1.66,1.93,1.66,3.55v155.38c0,1.63-.48,2.85-1.44,3.67-.96.82-2.22,1.22-3.77,1.22h-32.79c-1.48,0-2.68-.41-3.6-1.22-.92-.81-1.38-2.04-1.38-3.67v-63.09h-55.2v63.09c0,1.55-.5,2.76-1.5,3.61-1,.85-2.35,1.28-4.05,1.28h-32.65c-3.11,0-4.7-1.44-4.78-4.33V15.7Z"/>
</svg>